<?xml version="1.0" encoding="UTF-8" standalone="no"?>
<!DOCTYPE svg PUBLIC "-//W3C//DTD SVG 1.1//EN" "http://www.w3.org/Graphics/SVG/1.1/DTD/svg11.dtd">
<svg width="100%" height="100%" viewBox="0 0 512 512" version="1.1" xmlns="http://www.w3.org/2000/svg" xmlns:xlink="http://www.w3.org/1999/xlink" xml:space="preserve" xmlns:serif="http://www.serif.com/" style="fill-rule:evenodd;clip-rule:evenodd;stroke-linecap:round;stroke-linejoin:round;stroke-miterlimit:1.5;">
    <g transform="matrix(0.974437,0,0,0.974437,-33.4826,55.1675)">
        <circle cx="295.5" cy="238.5" r="192.5" style="fill:white;stroke:rgb(83,83,83);stroke-width:26.7px;"/>
    </g>
    <g transform="matrix(2.16667,0,0,1.44704,-239.536,-71.294)">
        <path d="M234,169.984C234,165.026 231.311,161 228,161C224.689,161 222,165.026 222,169.984L222,239.016C222,243.974 224.689,248 228,248C231.311,248 234,243.974 234,239.016L234,169.984Z" style="fill:rgb(83,83,83);"/>
    </g>
    <g transform="matrix(5.37837e-16,2.16667,-1.96862,1.06995e-16,657.047,-430.654)">
        <path d="M234,167.604C234,163.959 231.311,161 228,161C224.689,161 222,163.959 222,167.604L222,241.396C222,245.041 224.689,248 228,248C231.311,248 234,245.041 234,241.396L234,167.604Z" style="fill:white;"/>
        <path d="M246,167.604C246,156.67 237.934,147.793 228,147.793C218.066,147.793 210,156.67 210,167.604L210,241.396C210,252.33 218.066,261.207 228,261.207C237.934,261.207 246,252.33 246,241.396L246,167.604ZM234,167.604C234,163.959 231.311,161 228,161C224.689,161 222,163.959 222,167.604L222,241.396C222,245.041 224.689,248 228,248C231.311,248 234,245.041 234,241.396L234,167.604Z" style="fill:rgb(83,83,83);"/>
    </g>
    <g transform="matrix(1.53206,-1.53206,0.351273,0.351273,-15.0586,413.422)">
        <path d="M234,187.169C234,172.726 231.311,161 228,161C224.689,161 222,172.726 222,187.169L222,221.831C222,236.274 224.689,248 228,248C231.311,248 234,236.274 234,221.831L234,187.169Z" style="fill:white;"/>
        <path d="M246,187.169C246,143.84 237.934,108.662 228,108.662C218.066,108.662 210,143.84 210,187.169C210,187.169 210,221.831 210,221.831C210,265.16 218.066,300.338 228,300.338C237.934,300.338 246,265.16 246,221.831L246,187.169ZM234,187.169C234,172.726 231.311,161 228,161C224.689,161 222,172.726 222,187.169L222,221.831C222,236.274 224.689,248 228,248C231.311,248 234,236.274 234,221.831L234,187.169Z" style="fill:rgb(83,83,83);"/>
    </g>
</svg>
